<svg width="23" height="23" viewBox="0 0 23 23" fill="none" xmlns="http://www.w3.org/2000/svg">
<path d="M13.4167 5.27083V3.39583C13.4167 2.84354 12.969 2.39583 12.4167 2.39583H10.5834C10.0311 2.39583 9.58337 2.84354 9.58337 3.39583V5.27083" stroke="white"/>
<path d="M14.8334 21.5625C14.8334 21.8386 15.0572 22.0625 15.3334 22.0625C15.6095 22.0625 15.8334 21.8386 15.8334 21.5625H14.8334ZM14.8334 20.6042V21.5625H15.8334V20.6042H14.8334Z" fill="white"/>
<path d="M7.16669 21.5625C7.16669 21.8386 7.39054 22.0625 7.66669 22.0625C7.94283 22.0625 8.16669 21.8386 8.16669 21.5625H7.16669ZM7.16669 20.6042V21.5625H8.16669V20.6042H7.16669Z" fill="white"/>
<path fill-rule="evenodd" clip-rule="evenodd" d="M4.79169 7.75C4.79169 6.64543 5.68712 5.75 6.79169 5.75H16.2084C17.3129 5.75 18.2084 6.64543 18.2084 7.75V19.0833C18.2084 20.1879 17.3129 21.0833 16.2084 21.0833H6.79169C5.68712 21.0833 4.79169 20.1879 4.79169 19.0833V7.75ZM8.62502 8.14582C8.62502 7.88119 8.83955 7.66666 9.10419 7.66666C9.36882 7.66666 9.58335 7.88119 9.58335 8.14582V18.6875C9.58335 18.9521 9.36882 19.1667 9.10419 19.1667C8.83955 19.1667 8.62502 18.9521 8.62502 18.6875V8.14582ZM13.8959 7.66666C13.6312 7.66666 13.4167 7.88119 13.4167 8.14582V18.6875C13.4167 18.9521 13.6312 19.1667 13.8959 19.1667C14.1605 19.1667 14.375 18.9521 14.375 18.6875V8.14582C14.375 7.88119 14.1605 7.66666 13.8959 7.66666Z" fill="white"/>
</svg>
