<svg width="23" height="23" viewBox="0 0 23 23" fill="none" xmlns="http://www.w3.org/2000/svg">
<path fill-rule="evenodd" clip-rule="evenodd" d="M20.05 2C19.4417 2 18.8584 2.24164 18.4282 2.67175L15.6803 5.41966C15.4444 5.65562 15.1019 5.75048 14.7782 5.66954L3.9 2.95L2.93201 3.91799C2.56101 4.28899 2.56101 4.8905 2.93201 5.2615C3.00421 5.3337 3.08758 5.39379 3.1789 5.43945L11.5 9.6L7.7 13.4H3.53713C3.1773 13.4 2.84835 13.6033 2.68743 13.9251L2 15.3L5.8 17.2L7.7 21L9.07485 20.3126C9.3967 20.1517 9.6 19.8227 9.6 19.4629V15.3L13.4 11.5L17.5605 19.8211C17.7952 20.2904 18.3658 20.4806 18.8351 20.2459C18.9264 20.2003 19.0098 20.1402 19.082 20.068L20.05 19.1L17.3305 8.22182C17.2495 7.89808 17.3444 7.55562 17.5803 7.31966L20.3282 4.57175C20.7584 4.14164 21 3.55827 21 2.95C21 2.42533 20.5747 2 20.05 2Z" fill="white"/>
</svg>
