<svg width="23" height="23" viewBox="0 0 23 23" fill="none" xmlns="http://www.w3.org/2000/svg">
<path fill-rule="evenodd" clip-rule="evenodd" d="M21.7321 9.97265C21.5906 10.1102 21.3985 10.1887 21.1963 10.1887C20.4481 10.1887 19.8414 10.7781 19.8414 11.4951C19.8414 12.217 20.441 12.8034 21.1821 12.8113C21.5997 12.8152 21.9546 13.0981 21.9546 13.5037V16.0231C21.9546 18.1438 20.1852 19.8636 18.0012 19.8636H14.7051C14.3644 19.8636 14.0884 19.5955 14.0884 19.2645V17.1429C14.0884 16.7303 13.7547 16.4062 13.3301 16.4062C12.9155 16.4062 12.5718 16.7303 12.5718 17.1429V19.2645C12.5718 19.5955 12.2957 19.8636 11.956 19.8636H4.99879C2.82497 19.8636 1.04547 18.1447 1.04547 16.0231V13.5037C1.04547 13.0981 1.40036 12.8152 1.81793 12.8113C2.56007 12.8034 3.15862 12.217 3.15862 11.4951C3.15862 10.7977 2.5722 10.2673 1.80378 10.2673C1.60156 10.2673 1.40946 10.1887 1.26791 10.0512C1.12636 9.91371 1.04547 9.72709 1.04547 9.53065V6.98669C1.04547 4.86901 2.82901 3.13637 5.0089 3.13637H11.956C12.2957 3.13637 12.5718 3.40451 12.5718 3.73552V6.25002C12.5718 6.65273 12.9155 6.98669 13.3301 6.98669C13.7547 6.98669 14.0884 6.65273 14.0884 6.25002V3.73552C14.0884 3.40451 14.3644 3.13637 14.7051 3.13637H18.0012C20.1852 3.13637 21.9546 4.85526 21.9546 6.97686V9.45207C21.9546 9.64851 21.8737 9.83513 21.7321 9.97265ZM13.3301 14.5007C13.7547 14.5007 14.0884 14.1667 14.0884 13.764V9.83513C14.0884 9.43242 13.7547 9.09847 13.3301 9.09847C12.9155 9.09847 12.5718 9.43242 12.5718 9.83513V13.764C12.5718 14.1667 12.9155 14.5007 13.3301 14.5007Z" fill="white"/>
</svg>
